<?xml version="1.0" encoding="UTF-8"?><svg id="a" xmlns="http://www.w3.org/2000/svg" width="456" height="112.81" viewBox="0 0 456 112.81"><path d="m120.56,80.94v20.15h9.57v3.71h-14.08v-23.86h4.51Z"/><path d="m140.15,87.04c4.54,0,7.63,3.57,7.63,8.67,0,.49,0,1.04-.07,1.63h-11.76c.28,2.64,2.36,4.44,5.27,4.44,1.6,0,3.36-.59,5.17-1.63v3.71c-1.98.9-3.95,1.35-5.9,1.35-5.24,0-8.91-3.81-8.91-9.23s3.61-8.95,8.57-8.95Zm-.17,3.43c-2.15,0-3.82,1.6-4.02,3.99h7.56c-.14-2.36-1.56-3.99-3.54-3.99Z"/><path d="m155.76,87.46v1.49c1.56-1.25,3.29-1.91,5.06-1.91,3.61,0,6.17,2.57,6.17,6.24v11.51h-4.47v-10.72c0-1.84-1.25-3.16-3.05-3.16-1.28,0-2.57.62-3.71,1.84v12.04h-4.44v-17.34h4.44Z"/><path d="m176.05,101.71c1.56,0,2.64-.8,2.64-1.91,0-2.91-8.05-1.35-8.05-7.42,0-3.16,2.74-5.34,6.62-5.34,1.63,0,3.33.35,4.93,1.01v3.85c-1.49-.9-3.09-1.35-4.61-1.35s-2.5.73-2.5,1.77c0,2.77,8.05,1.21,8.05,7.42,0,3.23-2.77,5.48-6.8,5.48-1.77,0-3.54-.42-5.31-1.18v-3.92c1.66,1.04,3.36,1.6,5.03,1.6Z"/><path d="m205.54,87.46v3.57h-4.99v8.01c0,1.42,1.01,2.46,2.53,2.46.73,0,1.56-.24,2.46-.69v3.68c-1.25.49-2.46.73-3.64.73-3.4,0-5.79-2.32-5.79-5.58v-8.6h-2.98v-3.57h2.98v-4.89h4.44v4.89h4.99Z"/><path d="m216.81,87.04c5.24,0,8.91,3.75,8.91,9.09s-3.68,9.09-8.91,9.09-8.95-3.78-8.95-9.09,3.71-9.09,8.95-9.09Zm0,14.46c2.57,0,4.37-2.19,4.37-5.38s-1.8-5.38-4.37-5.38-4.4,2.19-4.4,5.38,1.8,5.38,4.4,5.38Z"/><path d="m242.51,79.86v24.94h-4.44v-24.94h4.44Z"/><path d="m254.75,87.04c4.54,0,7.63,3.57,7.63,8.67,0,.49,0,1.04-.07,1.63h-11.76c.28,2.64,2.36,4.44,5.27,4.44,1.6,0,3.36-.59,5.17-1.63v3.71c-1.98.9-3.95,1.35-5.9,1.35-5.24,0-8.91-3.81-8.91-9.23s3.61-8.95,8.57-8.95Zm-.17,3.43c-2.15,0-3.82,1.6-4.02,3.99h7.56c-.14-2.36-1.56-3.99-3.54-3.99Z"/><path d="m272.48,112.81c-2.01,0-4.06-.45-6.1-1.32v-3.88c1.94,1.08,3.92,1.7,5.69,1.7,2.91,0,4.93-1.87,4.93-4.58v-1.14c-1.35,1.07-2.88,1.63-4.4,1.63-4.61,0-7.84-3.75-7.84-9.09s3.23-9.09,7.84-9.09c1.53,0,3.05.55,4.4,1.6v-1.18h4.47v17.13c0,4.79-3.68,8.22-8.98,8.22Zm1.08-11.41c1.21,0,2.43-.52,3.43-1.56v-7.42c-1.01-1.04-2.22-1.56-3.43-1.56-2.53,0-4.27,2.15-4.27,5.27s1.73,5.27,4.27,5.27Z"/><path d="m293.67,87.04c4.54,0,7.63,3.57,7.63,8.67,0,.49,0,1.04-.07,1.63h-11.76c.28,2.64,2.36,4.44,5.27,4.44,1.6,0,3.36-.59,5.17-1.63v3.71c-1.98.9-3.95,1.35-5.9,1.35-5.24,0-8.91-3.81-8.91-9.23s3.61-8.95,8.57-8.95Zm-.17,3.43c-2.15,0-3.82,1.6-4.02,3.99h7.56c-.14-2.36-1.56-3.99-3.54-3.99Z"/><path d="m309.28,87.46v1.49c1.56-1.25,3.29-1.91,5.06-1.91,3.61,0,6.17,2.57,6.17,6.24v11.51h-4.47v-10.72c0-1.84-1.25-3.16-3.05-3.16-1.28,0-2.57.62-3.71,1.84v12.04h-4.44v-17.34h4.44Z"/><path d="m336.27,104.8v-1.21c-1.35,1.07-2.88,1.63-4.4,1.63-4.61,0-7.84-3.75-7.84-9.09s3.23-9.09,7.84-9.09c1.53,0,3.05.55,4.4,1.6v-8.77h4.47v24.94h-4.47Zm-3.43-3.4c1.21,0,2.43-.52,3.43-1.56v-7.42c-1.01-1.04-2.22-1.56-3.43-1.56-2.53,0-4.27,2.15-4.27,5.27s1.73,5.27,4.27,5.27Z"/><rect x="216.79" y="49.24" width="3.18" height=".88" style="fill:#040000;"/><path d="m205.08,47.14c-.07-.35-.16-.55-.24-.69-.17-.31-.54-.79-1.41-.79-.28,0-.82.03-1.32.56-.41.44-.78,1.18-.78,2.51,0,.89.18,1.92.88,2.57.48.44,1.01.46,1.25.46.17,0,.6-.01.99-.32.63-.49.69-1.42.71-1.6h1.11c-.01.27-.04,1.17-.56,1.91-.29.43-.93,1.07-2.21,1.07-.26,0-.89-.02-1.53-.34-.88-.44-1.94-1.5-1.94-3.75,0-1.96.75-2.99,1.43-3.51.79-.6,1.62-.64,1.98-.64,1.04,0,1.99.45,2.44,1.43.17.36.22.72.27,1.11h-1.09Z" style="fill:#040000;"/><path d="m209.9,45.14c.77-.52,1.52-.55,1.85-.55,1.19,0,1.92.56,2.25.89.54.52,1.17,1.5,1.17,3.23,0,.47-.02,2.54-1.64,3.6-.54.35-1.13.52-1.78.52-.28,0-.96-.03-1.63-.43-1.77-1.01-1.8-3.22-1.8-3.69.01-1.34.42-2.77,1.59-3.57m.1,5.49c.17.33.34.51.45.62.49.48,1.03.52,1.29.52.73,0,1.31-.37,1.67-1,.21-.36.46-1.05.46-2.06,0-.23.02-1.74-.84-2.57-.2-.19-.6-.5-1.28-.5-.17,0-.56.01-.95.25-1.23.72-1.18,2.62-1.18,2.81,0,.22,0,1.16.38,1.92" style="fill:#040000;"/><polygon points="226.5 48.04 226.5 49.09 223.3 49.09 223.3 51.63 226.88 51.63 226.88 52.68 222.07 52.68 222.07 44.74 226.78 44.74 226.78 45.79 223.3 45.79 223.3 48.04 226.5 48.04" style="fill:#040000;"/><polygon points="230.73 44.74 234.24 50.8 234.24 44.74 235.4 44.74 235.4 52.68 234.13 52.68 230.58 46.62 230.58 52.68 229.41 52.68 229.41 44.74 230.73 44.74" style="fill:#040000;"/><path d="m244.38,48.65v3.29c-.09.07-.34.24-.62.38-.33.16-1.14.51-2.17.51-1.42,0-2.21-.64-2.59-1.08-.43-.5-.96-1.46-.96-3.05,0-.45.01-2.59,1.64-3.61.29-.18.91-.5,1.79-.5,1,0,1.99.41,2.48,1.34.15.27.26.57.31,1.19h-1.09c-.06-.28-.19-1.1-1.06-1.37-.26-.09-.53-.1-.62-.1-.33,0-1.08.08-1.61.83-.43.62-.56,1.52-.56,2.24,0,1.44.52,3.04,2.27,3.04.57,0,1.24-.2,1.73-.52v-1.62h-1.61v-.97h2.66Z" style="fill:#040000;"/><rect x="247.19" y="44.74" width="1.24" height="7.94" style="fill:#040000;"/><polygon points="252.85 44.74 256.36 50.8 256.36 44.74 257.52 44.74 257.52 52.68 256.25 52.68 252.7 46.62 252.7 52.68 251.53 52.68 251.53 44.74 252.85 44.74" style="fill:#040000;"/><polygon points="265.05 48.04 265.05 49.09 261.85 49.09 261.85 51.63 265.43 51.63 265.43 52.68 260.63 52.68 260.63 44.74 265.33 44.74 265.33 45.79 261.85 45.79 261.85 48.04 265.05 48.04" style="fill:#040000;"/><polygon points="272.39 48.04 272.39 49.09 269.19 49.09 269.19 51.63 272.77 51.63 272.77 52.68 267.96 52.68 267.96 44.74 272.67 44.74 272.67 45.79 269.19 45.79 269.19 48.04 272.39 48.04" style="fill:#040000;"/><path d="m277,44.74c.44,0,1.02,0,1.46.06.33.06,1.27.19,1.79,1.08.12.2.31.62.3,1.22,0,.19-.02.78-.35,1.28-.17.26-.39.47-.64.64-.22.15-.43.21-.52.26l1.96,3.41h-1.45l-1.81-3.21h-1.23v3.21h-1.23v-7.94h1.71Zm.71,3.68c.33-.02,1.59-.04,1.58-1.35,0-.64-.36-.95-.57-1.06-.45-.26-1.23-.21-1.7-.23h-.5v2.63h1.19Z" style="fill:#040000;"/><polygon points="287.7 48.04 287.7 49.09 284.51 49.09 284.51 51.63 288.08 51.63 288.08 52.68 283.28 52.68 283.28 44.74 287.98 44.74 287.98 45.79 284.51 45.79 284.51 48.04 287.7 48.04" style="fill:#040000;"/><path d="m292.88,44.74c1.29.04,1.9.3,2.4.69.57.44,1.45,1.46,1.44,3.29,0,1.11-.36,2.32-1.2,3.09-.97.9-2.23.88-3.43.88h-1.45v-7.94h2.25Zm-.37,6.89c.62,0,.9-.01,1.19-.09.55-.12,1.33-.49,1.63-1.78.11-.48.11-.88.11-1.06,0-1.15-.39-2.41-1.62-2.78-.42-.12-.79-.14-1.62-.14h-.35v5.84h.65Z" style="fill:#040000;"/><polygon points="304.1 44.74 305.63 51.21 307.18 44.74 308.24 44.74 309.8 51.21 311.34 44.74 312.48 44.74 310.5 52.71 309.13 52.71 307.7 47.05 306.28 52.71 304.91 52.71 302.94 44.74 304.1 44.74" style="fill:#040000;"/><rect x="314.74" y="44.74" width="1.24" height="7.94" style="fill:#040000;"/><polygon points="323.7 44.74 323.7 45.79 321.61 45.79 321.61 52.68 320.38 52.68 320.38 45.79 318.3 45.79 318.3 44.74 323.7 44.74" style="fill:#040000;"/><polygon points="330.67 48.02 330.67 44.74 331.89 44.74 331.89 52.68 330.67 52.68 330.67 49.05 327.24 49.05 327.24 52.68 326.01 52.68 326.01 44.74 327.24 44.74 327.24 48.02 330.67 48.02" style="fill:#040000;"/><path d="m296.9,9.05v-4.08l7.33-4.01h3.01v23.79h-4.53V5.83l-5.81,3.22Z"/><path d="m313.78,18.83v-2.8l10.89-15.07h3.63v14.45h3.53v3.42h-3.53v5.91h-4.29v-5.91h-10.23Zm10.23-11.69l-5.95,8.26h5.95V7.15Z"/><path d="m212.76.53c-3.57,0-7.14.45-9.4,2.67-2.26,2.22-3.13,5.56-3.13,9.65s.78,7.37,3.04,9.59c2.26,2.21,5.92,2.75,9.49,2.75s7.12-.45,9.38-2.67c2.26-2.22,3.15-5.58,3.15-9.67s-.79-7.35-3.05-9.57c-2.26-2.22-5.91-2.75-9.48-2.75Zm5.41,18.22c-1.26,1.44-3.53,1.69-5.41,1.69s-4.15-.25-5.41-1.68c-1.26-1.44-1.34-3.41-1.34-5.9s.08-4.41,1.34-5.85c1.26-1.44,3.28-1.69,5.41-1.69s4.15.25,5.41,1.69c1.26,1.44,1.34,3.36,1.34,5.85s-.08,4.46-1.34,5.9ZM163.33.96h-5.05c-.22,0-.39.17-.39.38v23.04c0,.21.18.38.39.38h5.05c.21,0,.39-.17.39-.38V1.35c0-.21-.18-.38-.39-.38Zm-21.22,11.71l8.97-11.1c.19-.24.02-.6-.29-.6h-6.47c-.15,0-.3.07-.39.2l-5.93,7.86-5.78-7.85c-.09-.13-.24-.2-.4-.2h-6.49c-.31,0-.48.36-.29.6l9.08,11.31-9.09,11.3c-.19.24-.01.59.29.59h6.48c.16,0,.31-.08.4-.2l6.06-7.83,5.74,7.83c.09.13.24.2.4.2h6.4c.31,0,.48-.35.29-.6l-8.99-11.5Zm122.97-9.96c-2.06-1.91-5.36-2.14-8.03-2.14-3.45,0-5.65.74-6.99,1.42h-.93c-1.3-.72-3.6-1.42-7.21-1.42-2.67,0-5.95.2-7.97,1.89-1.67,1.4-2.06,3.27-2.06,7.11v14.81c0,.21.18.38.39.38h5.05c.22,0,.39-.17.39-.38v-.05s0-9.36,0-12.13c0-2.2-.09-4.49.39-5.34.37-.66.95-1.41,3.69-1.41,3.27,0,4.04.23,4.56,1.68.12.34.18.83.21,1.42v15.84c0,.21.18.38.39.38h5.05c.21,0,.39-.17.39-.38v-15.84c.03-.59.09-1.08.21-1.42.52-1.45,1.29-1.68,4.56-1.68,2.74,0,3.32.74,3.69,1.41.47.85.39,3.14.39,5.34,0,2.77,0,12.13,0,12.13v.05c0,.21.18.38.39.38h5.05c.21,0,.39-.17.39-.38v-13.9c0-3.98-.13-6.02-2-7.75Zm-72.47,1.41c-2.33-3.22-6.55-4.19-10.93-3.96-4.44.24-7.53,1.18-8.32,1.48-.49.19-.43.61-.43.86-.02.85-.08,3.05-.08,3.94,0,.39.49.58.89.43,1.62-.57,4.6-1.49,7.01-1.68,2.59-.21,6.11,0,7.08,1.47.46.7.49,1.77.54,2.86-1.62-.15-4.01-.35-6.39-.22-1.85.1-5.4.26-7.49,1.37-1.7.91-2.7,1.73-3.23,3.26-.43,1.23-.54,2.71-.41,3.92.31,2.75,1.27,4.13,2.56,5.08,2.04,1.51,4.61,2.31,9.93,2.19,7.08-.15,8.94-2.44,9.88-4.07,1.6-2.77,1.32-7.14,1.27-9.82-.02-1.11-.18-4.77-1.89-7.12Zm-4.61,14.53c-.67,1.41-3.05,1.62-4.46,1.69-2.61.12-4.53.01-5.77-.6-.82-.41-1.43-1.34-1.48-2.4-.05-.9-.03-1.37.38-1.9.92-1.19,3.31-1.45,5.78-1.55,1.66-.06,4.2.12,6.07.35-.01,1.81-.13,3.62-.51,4.41ZM280.53.96h-5.05c-.22,0-.39.17-.39.38v23.04c0,.21.18.38.39.38h5.05c.21,0,.39-.17.39-.38V1.35c0-.21-.18-.38-.39-.38Z" style="fill:#040000;"/><path d="m355.72,64.78c8.84,0,16-7.16,16-16s-7.16-16-16-16-16,7.16-16,16,7.16,16,16,16Z" style="fill:#e60012;"/><path d="m368.44,49.69s-.42.3-.71.3c-.22,0-.35-.19-.35-.39,0-.46.73-2.74.73-2.74l-1.77.02-.09.31s-.26-.52-1.19-.52c-1.8,0-2.79,1.55-2.84,2.47,0,.2-.01.23-.01.23-.04.05-.68.77-1.46.77-.63,0-.73-.52-.73-.86,0-.36.3-1.8,1.16-1.8.47,0,.75.4.75.4l.25-.82s-.4-.31-1.21-.31c-1.74,0-2.93,1.31-2.98,2.49,0,.18-.02.23-.01.24-.06.07-.49.56-1.05.56-.38,0-.38-.3-.38-.43,0-.18.75-2.75.75-2.75l-1.97.03-.7,2.49s-1.08.78-2.59.89c-.78.05-1.05-.42-1.05-.7v-.11s.32.02.56.02c.19,0,2.49-.16,2.49-1.57,0-.8-.8-1.11-1.82-1.11-1.88,0-3.2,1.17-3.2,2.55,0,1.26,1.08,1.81,2.47,1.81,1.58,0,3.12-.97,3.12-.97,0,0,.09.97,1.33.97s2.29-.97,2.29-.97c0,0,.56.93,1.84.93s2.31-1.06,2.31-1.06c0,0,.35,1,1.64,1,1.01,0,1.55-.66,1.55-.66,0,0,.29.66,1.17.66,1.08,0,1.88-.76,1.88-.76l-.19-.62Zm-16.15-2.31c.26.02.44.2.43.4-.04,1.25-1.59,1.06-1.59,1.06,0,0,.25-1.51,1.15-1.46Zm12.4,2.76c-.49,0-.49-.53-.49-.69,0-.41.32-2.03,1.2-2.03.37,0,.57.31.57.55,0,.05-.22,2.17-1.28,2.17Z" style="fill:#fff;"/><path d="m368.8,51.38s-4.14,1.44-12.04,1.34c-5.45-.07-9.61-1.68-9.61-1.68,0,0,.13-.26.22-.44.55-1.11,1.19-3.37,1.19-3.37,0,0,3.75-1.05,3.75-4.02,0-.94-.88-1.55-1.74-1.59-3.02-.12-3.86,4.18-4.04,4.92-.01.05-.02.07-.02.07-.93-.13-1.46-.32-1.46-.32l-.21.58c.63.3,1.54.39,1.54.39-.18,1.15-1.08,3.34-1.08,3.34,0,0-.83-.27-1.85-.27-1.33,0-1.79.63-1.82,1.03-.09,1.03,1.2,1.51,2.11,1.51,1.76,0,2.67-.95,2.67-.95,0,0,4.95,1.87,10.11,1.87,6.76,0,12.46-1.8,12.46-1.8l-.19-.62Zm-18.09-8.89c.58,0,.77.47.72.89-.28,2.48-2.75,3.05-2.75,3.05,0,0,.61-3.95,2.03-3.95Zm-7.35,9.59c-.5.02-.82-.32-.82-.5,0-.41.5-.47.82-.45.77.04,1.44.31,1.44.31,0,0-.78.63-1.44.65Z" style="fill:#fff;"/><path d="m356.71,44.53c-.63,0-1.09.26-1.09.84s.54.76,1.09.76,1.07-.26,1.07-.87-.61-.73-1.07-.73Z" style="fill:#fff;"/></svg>